#!OML:ASF X:\für Bonn\!DataBase\2005_08_11_Bastian_Final\c3d\Bastian.ASF
:FULLY-SPECIFIED
:DEGREES
260
root 18.4759 16.7178 -3.30285 1090.8 -53.9645 7.9037
lowerback 65.1075 4.02144 3.65036
upperback 20.1414 3.84094 1.73874
thorax 1.44507 1.10902 -1.03888
lowerneck -15.8395 -10.0677 -0.459447
upperneck -27.0774 -11.9178 18.4409
head -4.45721 -7.8095 5.86497
rclavicle 1.43125e-014 2.78299e-014
rhumerus 73.463 22.5588 -21.2312
rradius 19.6653
rwrist -23.2252
rhand -28.044 -5.16513
rfingers 7.12502
rthumb -1.4284 -35.1401
lclavicle 1.43125e-014 2.78299e-014
lhumerus -0.574209 -23.005 -273.283
lradius 34.4749
lwrist -332.004
lhand -11.8617 -15.3363
lfingers 7.12502
lthumb 14.1902 14.159
rfemur -50.7676 -22.4041 25.6246
rtibia 58.0544
rfoot -19.5823 -7.91697
rtoes 3.81119
lfemur -49.6689 -8.05 -22.7251
ltibia 41.0996
lfoot -0.23698 -17.7451
ltoes -18.7788
261
root 18.4589 16.7486 -3.29094 1090.5 -54.2673 7.44026
lowerback 64.626 4.15253 3.58804
upperback 20.129 3.92392 1.63588
thorax 1.42017 1.14869 -1.1642
lowerneck -15.3124 -10.0825 -0.246168
upperneck -27.2899 -11.9152 18.4814
head -4.61559 -7.85639 5.88922
rclavicle -3.18055e-015 -2.5842e-014
rhumerus 72.0131 23.6668 -22.3204
rradius 20.2763
rwrist -22.9765
rhand -28.0823 -4.88826
rfingers 7.12502
rthumb -1.46545 -34.863
lclavicle -3.18055e-015 -2.5842e-014
lhumerus -0.721465 -23.2998 -273.544
lradius 34.2271
lwrist -331.721
lhand -11.9861 -15.0536
lfingers 7.12502
lthumb 14.0704 14.4501
rfemur -49.4673 -21.8974 25.4466
rtibia 57.4576
rfoot -19.479 -8.18838
rtoes 3.52283
lfemur -48.6414 -7.9733 -22.4201
ltibia 40.8041
lfoot -0.407765 -17.4258
ltoes -19.0171
262
root 18.4412 16.7779 -3.27707 1090.29 -54.5697 6.90843
lowerback 64.0978 4.15525 3.64649
upperback 20.1 3.93192 1.40624
thorax 1.39224 1.18114 -1.45219
lowerneck -14.7278 -10.0957 -0.00912713
upperneck -27.4891 -11.8888 18.6125
head -4.77474 -7.89888 5.94221
rclavicle 1.90833e-014 2.5842e-014
rhumerus 70.165 24.7541 -24.0394
rradius 20.9883
rwrist -22.2443
rhand -28.0878 -4.48718
rfingers 7.12502
rthumb -1.47069 -34.4619
lclavicle 1.90833e-014 2.5842e-014
lhumerus -0.912562 -23.6783 -273.949
lradius 34.0249
lwrist -331.363
lhand -12.1391 -14.7222
lfingers 7.12502
lthumb 13.923 14.7916
rfemur -48.193 -21.3555 25.3095
rtibia 56.8612
rfoot -19.3668 -8.44793
rtoes 3.37206
lfemur -47.6455 -7.95347 -22.0463
ltibia 40.5373
lfoot -0.599026 -17.0701
ltoes -19.2959
263
root 18.4226 16.806 -3.26239 1090.03 -54.8982 6.41835
lowerback 63.6148 4.19662 3.56684
upperback 19.9865 3.92281 1.23145
thorax 1.25779 1.18359 -1.61588
lowerneck -14.0789 -10.1011 0.0479401
upperneck -27.5627 -11.8424 18.7198
head -4.89238 -7.90185 6.00947
rclavicle -3.18055e-015 2.22639e-014
rhumerus 68.375 25.9782 -25.7063
rradius 21.7268
rwrist -21.4913
rhand -28.0727 -4.1262
rfingers 7.12502
rthumb -1.4561 -34.101
lclavicle -3.18055e-015 2.22639e-014
lhumerus -1.29966 -23.9117 -274.214
lradius 33.8354
lwrist -331.065
lhand -12.3377 -14.3768
lfingers 7.12502
lthumb 13.7316 15.1502
rfemur -46.925 -20.8376 25.1744
rtibia 56.2768
rfoot -19.2455 -8.69765
rtoes 3.06466
lfemur -46.634 -7.89871 -21.7262
ltibia 40.284
lfoot -0.820198 -16.7181
ltoes -19.6836
264
root 18.4037 16.8326 -3.24519 1089.79 -55.214 5.89688
lowerback 63.1746 4.23095 3.52842
upperback 19.8054 3.94182 1.06035
thorax 1.05154 1.20125 -1.80297
lowerneck -13.3312 -10.1133 0.10931
upperneck -27.6454 -11.7879 18.8623
head -5.02698 -7.90563 6.09437
rclavicle 5.725e-014 4.29375e-014
rhumerus 66.3777 27.1896 -27.5491
rradius 22.4293
rwrist -20.7009
rhand -28.0039 -3.61608
rfingers 7.12502
rthumb -1.38969 -33.5913
lclavicle 5.725e-014 4.29375e-014
lhumerus -1.74824 -24.1492 -274.421
lradius 33.5931
lwrist -330.845
lhand -12.5001 -14.048
lfingers 7.12502
lthumb 13.575 15.4894
rfemur -45.6447 -20.3153 25.0451
rtibia 55.692
rfoot -19.1556 -8.92208
rtoes 2.90977
lfemur -45.6194 -7.82365 -21.4198
ltibia 40.0511
lfoot -1.0198 -16.4262
ltoes -19.7843
265
root 18.384 16.858 -3.22683 1089.47 -55.5423 5.49012
lowerback 62.7045 4.30023 3.46741
upperback 19.6525 3.97961 0.826202
thorax 0.883418 1.23755 -2.05575
lowerneck -12.7487 -10.0895 0.561475
upperneck -27.6393 -11.7517 18.8577
head -5.15372 -7.93609 6.05955
rclavicle -2.54444e-014 -9.74045e-015
rhumerus 64.2184 28.2598 -29.5426
rradius 23.1266
rwrist -19.9073
rhand -28.0264 -3.11136
rfingers 7.12502
rthumb -1.41142 -33.0864
lclavicle -2.54444e-014 -9.74045e-015
lhumerus -2.16259 -24.721 -274.852
lradius 33.4945
lwrist -330.463
lhand -12.718 -13.6589
lfingers 7.12502
lthumb 13.365 15.8924
rfemur -44.397 -19.8296 24.8753
rtibia 55.1153
rfoot -19.0539 -9.14448
rtoes 2.60655
lfemur -44.6139 -7.79873 -21.1707
ltibia 39.8251
lfoot -1.23165 -16.07
ltoes -19.994
266
root 18.3616 16.8831 -3.20569 1089.28 -55.8632 4.9597
lowerback 62.2589 4.36504 3.47866
upperback 19.4537 4.05905 0.588353
thorax 0.67131 1.29819 -2.35834
lowerneck -12.237 -10.0784 1.12847
upperneck -27.5952 -11.7511 18.8022
head -5.26983 -7.98652 5.98433
rclavicle -3.49861e-014 1.33186e-014
rhumerus 61.8346 29.2332 -31.6751
rradius 23.8674
rwrist -19.1511
rhand -28.0296 -2.51556
rfingers 7.12502
rthumb -1.41455 -32.4906
lclavicle -3.49861e-014 1.33186e-014
lhumerus -2.56343 -25.3191 -275.262
lradius 33.2982
lwrist -330.12
lhand -12.9202 -13.3107
lfingers 7.12502
lthumb 13.1701 16.2533
rfemur -43.1634 -19.3175 24.7852
rtibia 54.5367
rfoot -18.9371 -9.40533
rtoes 2.25566
lfemur -43.6136 -7.75028 -20.8687
ltibia 39.6143
lfoot -1.46819 -15.7385
ltoes -20.1438
267
root 18.3349 16.908 -3.18292 1089.03 -56.1868 4.47005
lowerback 61.8097 4.44009 3.42449
upperback 19.2436 4.1192 0.375054
thorax 0.442889 1.3407 -2.59882
lowerneck -11.6182 -10.0677 1.61169
upperneck -27.6522 -11.7221 18.7617
head -5.43109 -8.02706 5.94273
rclavicle -3.18055e-014 2.127e-014
rhumerus 59.432 30.1794 -33.794
rradius 24.6362
rwrist -18.3546
rhand -27.9505 -1.9713
rfingers 7.12502
rthumb -1.33807 -31.9468
lclavicle -3.18055e-014 2.127e-014
lhumerus -3.00294 -25.7142 -275.595
lradius 33.0313
lwrist -330.015
lhand -13.0796 -13.0245
lfingers 7.12502
lthumb 13.0164 16.5494
rfemur -41.9103 -18.8388 24.6802
rtibia 53.9586
rfoot -18.8277 -9.60125
rtoes 2.17423
lfemur -42.5909 -7.72946 -20.5879
ltibia 39.4073
lfoot -1.68628 -15.4107
ltoes -20.1943
268
root 18.3045 16.9312 -3.15759 1088.82 -56.5046 4.01032
lowerback 61.3142 4.51591 3.3096
upperback 18.9969 4.15963 0.18971
thorax 0.169033 1.36602 -2.77582
lowerneck -10.9748 -10.0599 1.97732
upperneck -27.6517 -11.6819 18.7461
head -5.56716 -8.04728 5.92371
rclavicle 6.99722e-014 -3.88127e-014
rhumerus 56.98 30.7421 -37.0503
rradius 24.2611
rwrist -16.6078
rhand -27.7554 -0.807075
rfingers 7.12502
rthumb -1.14963 -30.7837
lclavicle 6.99722e-014 -3.88127e-014
lhumerus -3.51739 -25.9671 -275.824
lradius 32.7197
lwrist -329.95
lhand -13.2194 -12.775
lfingers 7.12502
lthumb 12.8817 16.8074
rfemur -40.708 -18.3682 24.5753
rtibia 53.3903
rfoot -18.7744 -9.77225
rtoes 2.04114
lfemur -41.6129 -7.66491 -20.3579
ltibia 39.2168
lfoot -1.96511 -15.1209
ltoes -20.4116
269
root 18.2719 16.9548 -3.13082 1088.58 -56.8398 3.55819
lowerback 60.8618 4.62152 3.16453
upperback 18.7425 4.22117 0.056672
thorax -0.115024 1.39159 -2.88966
lowerneck -10.3493 -10.0747 2.22483
upperneck -27.6363 -11.6629 18.7468
head -5.68338 -8.06602 5.92466
rclavicle 5.40694e-014 3.45947e-014
rhumerus 54.6507 31.3339 -39.6613
rradius 24.1219
rwrist -15.3426
rhand -27.6305 0.136859
rfingers 7.12502
rthumb -1.02901 -29.8404
lclavicle 5.40694e-014 3.45947e-014
lhumerus -4.01486 -26.1445 -275.956
lradius 32.3289
lwrist -329.934
lhand -13.3607 -12.6194
lfingers 7.12502
lthumb 12.7455 16.9716
rfemur -39.4717 -17.8981 24.4644
rtibia 52.8279
rfoot -18.7435 -9.92091
rtoes 1.93727
lfemur -40.6008 -7.61299 -20.1324
ltibia 39.0418
lfoot -2.21536 -14.827
ltoes -20.4366
270
root 18.2372 16.9756 -3.10181 1088.29 -57.19 3.2003
lowerback 60.3423 4.74155 2.96095
upperback 18.5025 4.27135 -0.0621836
thorax -0.383706 1.40831 -2.95785
lowerneck -9.86444 -10.1015 2.39905
upperneck -27.4255 -11.6794 18.7603
head -5.70297 -8.07557 5.91455
rclavicle 1.59028e-015 5.30755e-014
rhumerus 52.5041 31.9772 -41.7638
rradius 24.1296
rwrist -14.5504
rhand -27.4453 0.974286
rfingers 7.12502
rthumb -0.850149 -29.0038
lclavicle 1.59028e-015 5.30755e-014
lhumerus -4.49214 -26.2014 -276.054
lradius 31.9265
lwrist -330.026
lhand -13.4672 -12.4505
lfingers 7.12502
lthumb 12.6428 17.1469
rfemur -38.2964 -17.443 24.3177
rtibia 52.2829
rfoot -18.6878 -10.0482
rtoes 1.89226
lfemur -39.625 -7.60345 -19.9533
ltibia 38.8756
lfoot -2.50755 -14.4889
ltoes -20.5389
